<?xml version="1.0" standalone="no"?>
<!DOCTYPE svg PUBLIC "-//W3C//DTD SVG 20010904//EN"
 "http://www.w3.org/TR/2001/REC-SVG-20010904/DTD/svg10.dtd">
<svg version="1.0" xmlns="http://www.w3.org/2000/svg"
 width="784.000000pt" height="799.000000pt" viewBox="0 0 784.000000 799.000000"
 preserveAspectRatio="xMidYMid meet">

<g transform="translate(0.000000,799.000000) scale(0.100000,-0.100000)"
fill="#000000" stroke="none">
<path d="M20 6830 l0 -1140 1080 0 1080 0 0 1140 0 1140 -1080 0 -1080 0 0
-1140z m1790 0 l0 -770 -715 0 -715 0 0 770 0 770 715 0 715 0 0 -770z"/>
<path d="M2830 6830 l0 -1140 1080 0 1080 0 0 1140 0 1140 -1080 0 -1080 0 0
-1140z m1790 0 l0 -770 -710 0 -710 0 0 770 0 770 710 0 710 0 0 -770z"/>
<path d="M5670 6830 l0 -1140 1080 0 1080 0 0 1140 0 1140 -1080 0 -1080 0 0
-1140z m1790 0 l0 -770 -710 0 -710 0 0 770 0 770 710 0 710 0 0 -770z"/>
<path d="M20 3995 l0 -1145 1078 2 1077 3 0 1140 0 1140 -1077 3 -1078 2 0
-1145z m1788 3 l-3 -773 -710 0 -710 0 -3 760 c-1 418 0 766 3 773 3 9 156 12
715 12 l710 0 -2 -772z"/>
<path d="M2832 3998 l3 -1143 1078 -3 1077 -2 0 1145 0 1145 -1080 0 -1080 0
2 -1142z m1788 -3 l0 -775 -710 0 -710 0 0 775 0 775 710 0 710 0 0 -775z"/>
<path d="M5670 3995 l0 -1145 1080 0 1080 0 0 1145 0 1145 -1080 0 -1080 0 0
-1145z m1790 0 l0 -775 -710 0 -710 0 0 775 0 775 710 0 710 0 0 -775z"/>
<path d="M20 1150 l0 -1140 1080 0 1080 0 0 1140 0 1140 -1080 0 -1080 0 0
-1140z m1790 0 l0 -770 -715 0 -715 0 0 770 0 770 715 0 715 0 0 -770z"/>
<path d="M2830 1150 l0 -1140 1080 0 1080 0 0 1140 0 1140 -1080 0 -1080 0 0
-1140z m1790 0 l0 -770 -710 0 -710 0 0 770 0 770 710 0 710 0 0 -770z"/>
<path d="M5670 1150 l0 -1140 1080 0 1080 0 0 1140 0 1140 -1080 0 -1080 0 0
-1140z m1790 0 l0 -770 -710 0 -710 0 0 770 0 770 710 0 710 0 0 -770z"/>
</g>
</svg>
